{
  "accessors": [
    {
      "bufferView": 0,
      "componentType": 5123,
      "count": 288,
      "type": "SCALAR"
    },
    {
      "bufferView": 1,
      "componentType": 5126,
      "count": 192,
      "max": [
        7.499662399291992,
        4,
        5
      ],
      "min": [
        -7.499662399291992,
        0,
        -8.5
      ],
      "type": "VEC3"
    },
    {
      "bufferView": 2,
      "componentType": 5126,
      "count": 192,
      "type": "VEC3"
    },
    {
      "bufferView": 3,
      "componentType": 5123,
      "count": 180,
      "type": "SCALAR"
    },
    {
      "bufferView": 4,
      "componentType": 5126,
      "count": 96,
      "max": [
        0.3499999940395355,
        0.029999999329447746,
        0.3499999940395355
      ],
      "min": [
        -0.3499999940395355,
        -0.029999999329447746,
        -0.3499999940395355
      ],
      "type": "VEC3"
    },
    {
      "bufferView": 5,
      "componentType": 5126,
      "count": 96,
      "type": "VEC3"
    },
    {
      "bufferView": 6,
      "componentType": 5123,
      "count": 768,
      "type": "SCALAR"
    },
    {
      "bufferView": 7,
      "componentType": 5126,
      "count": 388,
      "max": [
        4.505336284637451,
        0.3499999940395355,
        0.4777671992778778
      ],
      "min": [
        -4.505336284637451,
        0,
        -2.9000000953674316
      ],
      "type": "VEC3"
    },
    {
      "bufferView": 8,
      "componentType": 5126,
      "count": 388,
      "type": "VEC3"
    },
    {
      "bufferView": 9,
      "componentType": 5123,
      "count": 6,
      "type": "SCALAR"
    },
    {
      "bufferView": 10,
      "componentType": 5126,
      "count": 4,
      "max": [
        4.5,
        4,
        5
      ],
      "min": [
        -4.5,
        0,
        5
      ],
      "type": "VEC3"
    },
    {
      "bufferView": 11,
      "componentType": 5126,
      "count": 4,
      "type": "VEC3"
    },
    {
      "bufferView": 12,
      "componentType": 5123,
      "count": 168,
      "type": "SCALAR"
    },
    {
      "bufferView": 13,
      "componentType": 5126,
      "count": 112,
      "max": [
        0.28999999165534973,
        1,
        0.20999999344348907
      ],
      "min": [
        -0.28999999165534973,
        0,
        -0.20999999344348907
      ],
      "type": "VEC3"
    },
    {
      "bufferView": 14,
      "componentType": 5126,
      "count": 112,
      "type": "VEC3"
    },
    {
      "bufferView": 15,
      "componentType": 5123,
      "count": 6,
      "type": "SCALAR"
    },
    {
      "bufferView": 16,
      "componentType": 5126,
      "count": 4,
      "max": [
        4.28000020980835,
        0.30000001192092896,
        4.989999771118164
      ],
      "min": [
        -4.28000020980835,
        0.2199999988079071,
        4.989999771118164
      ],
      "type": "VEC3"
    },
    {
      "bufferView": 17,
      "componentType": 5126,
      "count": 4,
      "type": "VEC3"
    },
    {
      "bufferView": 18,
      "componentType": 5123,
      "count": 12,
      "type": "SCALAR"
    },
    {
      "bufferView": 19,
      "componentType": 5126,
      "count": 8,
      "max": [
        0.28999999165534973,
        0.6299999952316284,
        0.20999999344348907
      ],
      "min": [
        -0.28999999165534973,
        0.6299999952316284,
        -0.1899999976158142
      ],
      "type": "VEC3"
    },
    {
      "bufferView": 20,
      "componentType": 5126,
      "count": 8,
      "type": "VEC3"
    },
    {
      "bufferView": 21,
      "componentType": 5123,
      "count": 141,
      "type": "SCALAR"
    },
    {
      "bufferView": 22,
      "componentType": 5126,
      "count": 49,
      "max": [
        7.499662399291992,
        0,
        5
      ],
      "min": [
        -7.499662399291992,
        0,
        -8.5
      ],
      "type": "VEC3"
    },
    {
      "bufferView": 23,
      "componentType": 5126,
      "count": 49,
      "type": "VEC3"
    },
    {
      "bufferView": 24,
      "componentType": 5123,
      "count": 141,
      "type": "SCALAR"
    },
    {
      "bufferView": 25,
      "componentType": 5126,
      "count": 49,
      "max": [
        7.499662399291992,
        4,
        5
      ],
      "min": [
        -7.499662399291992,
        4,
        -8.5
      ],
      "type": "VEC3"
    },
    {
      "bufferView": 26,
      "componentType": 5126,
      "count": 49,
      "type": "VEC3"
    },
    {
      "bufferView": 27,
      "componentType": 5123,
      "count": 6,
      "type": "SCALAR"
    },
    {
      "bufferView": 28,
      "componentType": 5126,
      "count": 4,
      "max": [
        4.28000020980835,
        3.7799999713897705,
        4.989999771118164
      ],
      "min": [
        -4.28000020980835,
        3.700000047683716,
        4.989999771118164
      ],
      "type": "VEC3"
    },
    {
      "bufferView": 29,
      "componentType": 5126,
      "count": 4,
      "type": "VEC3"
    },
    {
      "bufferView": 30,
      "componentType": 5123,
      "count": 6,
      "type": "SCALAR"
    },
    {
      "bufferView": 31,
      "componentType": 5126,
      "count": 4,
      "max": [
        1.600000023841858,
        0.30000001192092896,
        4.550000190734863
      ],
      "min": [
        -1.600000023841858,
        0,
        4.550000190734863
      ],
      "type": "VEC3"
    },
    {
      "bufferView": 32,
      "componentType": 5126,
      "count": 4,
      "type": "VEC3"
    },
    {
      "bufferView": 33,
      "componentType": 5123,
      "count": 768,
      "type": "SCALAR"
    },
    {
      "bufferView": 34,
      "componentType": 5126,
      "count": 388,
      "max": [
        5.652149200439453,
        0.699999988079071,
        -0.3252398371696472
      ],
      "min": [
        -5.652149200439453,
        0,
        -4.300000190734863
      ],
      "type": "VEC3"
    },
    {
      "bufferView": 35,
      "componentType": 5126,
      "count": 388,
      "type": "VEC3"
    },
    {
      "bufferView": 36,
      "componentType": 5123,
      "count": 30,
      "type": "SCALAR"
    },
    {
      "bufferView": 37,
      "componentType": 5126,
      "count": 20,
      "max": [
        1.600000023841858,
        0.30000001192092896,
        4.550000190734863
      ],
      "min": [
        -1.600000023841858,
        0,
        3.049999952316284
      ],
      "type": "VEC3"
    },
    {
      "bufferView": 38,
      "componentType": 5126,
      "count": 20,
      "type": "VEC3"
    },
    {
      "bufferView": 39,
      "componentType": 5123,
      "count": 6,
      "type": "SCALAR"
    },
    {
      "bufferView": 40,
      "componentType": 5126,
      "count": 4,
      "max": [
        -4.199999809265137,
        3.7799999713897705,
        4.989999771118164
      ],
      "min": [
        -4.28000020980835,
        0.2199999988079071,
        4.989999771118164
      ],
      "type": "VEC3"
    },
    {
      "bufferView": 41,
      "componentType": 5126,
      "count": 4,
      "type": "VEC3"
    },
    {
      "bufferView": 42,
      "componentType": 5123,
      "count": 6,
      "type": "SCALAR"
    },
    {
      "bufferView": 43,
      "componentType": 5126,
      "count": 4,
      "max": [
        4.199999809265137,
        3.700000047683716,
        4.96999979019165
      ],
      "min": [
        -4.199999809265137,
        0.30000001192092896,
        4.96999979019165
      ],
      "type": "VEC3"
    },
    {
      "bufferView": 44,
      "componentType": 5126,
      "count": 4,
      "type": "VEC3"
    },
    {
      "bufferView": 45,
      "componentType": 5126,
      "count": 4,
      "type": "VEC2"
    },
    {
      "bufferView": 46,
      "componentType": 5123,
      "count": 6,
      "type": "SCALAR"
    },
    {
      "bufferView": 47,
      "componentType": 5126,
      "count": 4,
      "max": [
        4.28000020980835,
        3.7799999713897705,
        4.989999771118164
      ],
      "min": [
        4.199999809265137,
        0.2199999988079071,
        4.989999771118164
      ],
      "type": "VEC3"
    },
    {
      "bufferView": 48,
      "componentType": 5126,
      "count": 4,
      "type": "VEC3"
    }
  ],
  "asset": {
    "minVersion": "2.0",
    "version": "2.0"
  },
  "bufferViews": [
    {
      "buffer": 0,
      "byteLength": 576,
      "target": 34963
    },
    {
      "buffer": 0,
      "byteLength": 2304,
      "byteOffset": 576,
      "target": 34962
    },
    {
      "buffer": 0,
      "byteLength": 2304,
      "byteOffset": 2880,
      "target": 34962
    },
    {
      "buffer": 1,
      "byteLength": 360,
      "target": 34963
    },
    {
      "buffer": 1,
      "byteLength": 1152,
      "byteOffset": 360,
      "target": 34962
    },
    {
      "buffer": 1,
      "byteLength": 1152,
      "byteOffset": 1512,
      "target": 34962
    },
    {
      "buffer": 2,
      "byteLength": 1536,
      "target": 34963
    },
    {
      "buffer": 2,
      "byteLength": 4656,
      "byteOffset": 1536,
      "target": 34962
    },
    {
      "buffer": 2,
      "byteLength": 4656,
      "byteOffset": 6192,
      "target": 34962
    },
    {
      "buffer": 3,
      "byteLength": 12,
      "target": 34963
    },
    {
      "buffer": 3,
      "byteLength": 48,
      "byteOffset": 12,
      "target": 34962
    },
    {
      "buffer": 3,
      "byteLength": 48,
      "byteOffset": 60,
      "target": 34962
    },
    {
      "buffer": 4,
      "byteLength": 336,
      "target": 34963
    },
    {
      "buffer": 4,
      "byteLength": 1344,
      "byteOffset": 336,
      "target": 34962
    },
    {
      "buffer": 4,
      "byteLength": 1344,
      "byteOffset": 1680,
      "target": 34962
    },
    {
      "buffer": 5,
      "byteLength": 12,
      "target": 34963
    },
    {
      "buffer": 5,
      "byteLength": 48,
      "byteOffset": 12,
      "target": 34962
    },
    {
      "buffer": 5,
      "byteLength": 48,
      "byteOffset": 60,
      "target": 34962
    },
    {
      "buffer": 6,
      "byteLength": 24,
      "target": 34963
    },
    {
      "buffer": 6,
      "byteLength": 96,
      "byteOffset": 24,
      "target": 34962
    },
    {
      "buffer": 6,
      "byteLength": 96,
      "byteOffset": 120,
      "target": 34962
    },
    {
      "buffer": 7,
      "byteLength": 282,
      "target": 34963
    },
    {
      "buffer": 7,
      "byteLength": 588,
      "byteOffset": 284,
      "target": 34962
    },
    {
      "buffer": 7,
      "byteLength": 588,
      "byteOffset": 872,
      "target": 34962
    },
    {
      "buffer": 8,
      "byteLength": 282,
      "target": 34963
    },
    {
      "buffer": 8,
      "byteLength": 588,
      "byteOffset": 284,
      "target": 34962
    },
    {
      "buffer": 8,
      "byteLength": 588,
      "byteOffset": 872,
      "target": 34962
    },
    {
      "buffer": 9,
      "byteLength": 12,
      "target": 34963
    },
    {
      "buffer": 9,
      "byteLength": 48,
      "byteOffset": 12,
      "target": 34962
    },
    {
      "buffer": 9,
      "byteLength": 48,
      "byteOffset": 60,
      "target": 34962
    },
    {
      "buffer": 10,
      "byteLength": 12,
      "target": 34963
    },
    {
      "buffer": 10,
      "byteLength": 48,
      "byteOffset": 12,
      "target": 34962
    },
    {
      "buffer": 10,
      "byteLength": 48,
      "byteOffset": 60,
      "target": 34962
    },
    {
      "buffer": 11,
      "byteLength": 1536,
      "target": 34963
    },
    {
      "buffer": 11,
      "byteLength": 4656,
      "byteOffset": 1536,
      "target": 34962
    },
    {
      "buffer": 11,
      "byteLength": 4656,
      "byteOffset": 6192,
      "target": 34962
    },
    {
      "buffer": 12,
      "byteLength": 60,
      "target": 34963
    },
    {
      "buffer": 12,
      "byteLength": 240,
      "byteOffset": 60,
      "target": 34962
    },
    {
      "buffer": 12,
      "byteLength": 240,
      "byteOffset": 300,
      "target": 34962
    },
    {
      "buffer": 13,
      "byteLength": 12,
      "target": 34963
    },
    {
      "buffer": 13,
      "byteLength": 48,
      "byteOffset": 12,
      "target": 34962
    },
    {
      "buffer": 13,
      "byteLength": 48,
      "byteOffset": 60,
      "target": 34962
    },
    {
      "buffer": 14,
      "byteLength": 12,
      "target": 34963
    },
    {
      "buffer": 14,
      "byteLength": 48,
      "byteOffset": 12,
      "target": 34962
    },
    {
      "buffer": 14,
      "byteLength": 48,
      "byteOffset": 60,
      "target": 34962
    },
    {
      "buffer": 14,
      "byteLength": 32,
      "byteOffset": 108,
      "target": 34962
    },
    {
      "buffer": 15,
      "byteLength": 12,
      "target": 34963
    },
    {
      "buffer": 15,
      "byteLength": 48,
      "byteOffset": 12,
      "target": 34962
    },
    {
      "buffer": 15,
      "byteLength": 48,
      "byteOffset": 60,
      "target": 34962
    }
  ],
  "buffers": [
    {
      "byteLength": 5184,
      "uri": "data:application/gltf-buffer;base64,"
    },
    {
      "byteLength": 2664,
      "uri": "data:application/gltf-buffer;base64,"
    },
    {
      "byteLength": 10848,
      "uri": "data:application/gltf-buffer;base64,"
    },
    {
      "byteLength": 108,
      "uri": "data:application/gltf-buffer;base64,"
    },
    {
      "byteLength": 3024,
      "uri": "data:application/gltf-buffer;base64,"
    },
    {
      "byteLength": 108,
      "uri": "data:application/gltf-buffer;base64,"
    },
    {
      "byteLength": 216,
      "uri": "data:application/gltf-buffer;base64,"
    },
    {
      "byteLength": 1460,
      "uri": "data:application/gltf-buffer;base64,"
    },
    {
      "byteLength": 1460,
      "uri": "data:application/gltf-buffer;base64,"
    },
    {
      "byteLength": 108,
      "uri": "data:application/gltf-buffer;base64,"
    },
    {
      "byteLength": 108,
      "uri": "data:application/gltf-buffer;base64,"
    },
    {
      "byteLength": 10848,
      "uri": "data:application/gltf-buffer;base64,"
    },
    {
      "byteLength": 540,
      "uri": "data:application/gltf-buffer;base64,"
    },
    {
      "byteLength": 108,
      "uri": "data:application/gltf-buffer;base64,"
    },
    {
      "byteLength": 140,
      "uri": "data:application/gltf-buffer;base64,"
    },
    {
      "byteLength": 108,
      "uri": "data:application/gltf-buffer;base64,"
    }
  ],
  "materials": [
    {
      "doubleSided": true,
      "name": "Mat_Primary_Brand",
      "pbrMetallicRoughness": {
        "baseColorFactor": [
          0.3960784375667572,
          0.11372549086809158,
          0.19607843458652496,
          1
        ],
        "metallicFactor": 0.05000000074505806,
        "roughnessFactor": 0.44999998807907104
      }
    },
    {
      "doubleSided": true,
      "name": "Mat_Wall",
      "pbrMetallicRoughness": {
        "baseColorFactor": [
          0.5490196347236633,
          0.5215686559677124,
          0.4745098054409027,
          1
        ],
        "metallicFactor": 0,
        "roughnessFactor": 0.8999999761581421
      }
    },
    {
      "doubleSided": true,
      "emissiveFactor": [
        1,
        0.9700000286102295,
        0.8700000047683716
      ],
      "extensions": {
        "KHR_materials_emissive_strength": {
          "emissiveStrength": 3.200000047683716
        }
      },
      "name": "Mat_LightFixture",
      "pbrMetallicRoughness": {
        "baseColorFactor": [
          1,
          0.9700000286102295,
          0.8700000047683716,
          1
        ],
        "metallicFactor": 0,
        "roughnessFactor": 0.10000000149011612
      }
    },
    {
      "doubleSided": true,
      "name": "Mat_Floor",
      "pbrMetallicRoughness": {
        "baseColorFactor": [
          0.20000000298023224,
          0.16862745583057404,
          0.14901961386203766,
          1
        ],
        "metallicFactor": 0,
        "roughnessFactor": 0.949999988079071
      }
    },
    {
      "doubleSided": true,
      "name": "Mat_Secondary_White",
      "pbrMetallicRoughness": {
        "metallicFactor": 0,
        "roughnessFactor": 0.3499999940395355
      }
    },
    {
      "doubleSided": true,
      "name": "Mat_Ceiling",
      "pbrMetallicRoughness": {
        "baseColorFactor": [
          0.9098039269447327,
          0.8941176533699036,
          0.8549019694328308,
          1
        ],
        "metallicFactor": 0,
        "roughnessFactor": 0.8999999761581421
      }
    },
    {
      "doubleSided": true,
      "name": "Mat_Step",
      "pbrMetallicRoughness": {
        "baseColorFactor": [
          0.29019609093666077,
          0.250980406999588,
          0.21960784494876862,
          1
        ],
        "metallicFactor": 0,
        "roughnessFactor": 0.800000011920929
      }
    },
    {
      "doubleSided": true,
      "name": "Mat_Podium",
      "pbrMetallicRoughness": {
        "baseColorFactor": [
          0.16862745583057404,
          0.15294118225574493,
          0.13725490868091583,
          1
        ],
        "metallicFactor": 0.10000000149011612,
        "roughnessFactor": 0.5
      }
    },
    {
      "doubleSided": true,
      "emissiveFactor": [
        1,
        1,
        1
      ],
      "extensions": {
        "KHR_materials_emissive_strength": {
          "emissiveStrength": 1.399999976158142
        }
      },
      "name": "ProjectorScreen_Material",
      "pbrMetallicRoughness": {
        "baseColorFactor": [
          0,
          0,
          0,
          1
        ],
        "metallicFactor": 0
      }
    }
  ],
  "meshes": [
    {
      "name": "Mesh_Riser_R3",
      "primitives": [
        {
          "attributes": {
            "NORMAL": 35,
            "POSITION": 34
          },
          "indices": 33,
          "material": 6
        }
      ]
    },
    {
      "name": "Mesh_Floor",
      "primitives": [
        {
          "attributes": {
            "NORMAL": 23,
            "POSITION": 22
          },
          "indices": 21,
          "material": 3
        }
      ]
    },
    {
      "name": "Mesh_TheaterSeat",
      "primitives": [
        {
          "attributes": {
            "NORMAL": 14,
            "POSITION": 13
          },
          "indices": 12,
          "material": 0
        },
        {
          "attributes": {
            "NORMAL": 20,
            "POSITION": 19
          },
          "indices": 18,
          "material": 4
        }
      ]
    },
    {
      "name": "Mesh_Ceiling",
      "primitives": [
        {
          "attributes": {
            "NORMAL": 26,
            "POSITION": 25
          },
          "indices": 24,
          "material": 5
        }
      ]
    },
    {
      "name": "Mesh_LightFixture",
      "primitives": [
        {
          "attributes": {
            "NORMAL": 5,
            "POSITION": 4
          },
          "indices": 3,
          "material": 2
        }
      ]
    },
    {
      "name": "Mesh_ScreenBezel_Bottom",
      "primitives": [
        {
          "attributes": {
            "NORMAL": 17,
            "POSITION": 16
          },
          "indices": 15,
          "material": 0
        }
      ]
    },
    {
      "name": "Mesh_ScreenBezel_Top",
      "primitives": [
        {
          "attributes": {
            "NORMAL": 29,
            "POSITION": 28
          },
          "indices": 27,
          "material": 0
        }
      ]
    },
    {
      "name": "Mesh_FrontWall",
      "primitives": [
        {
          "attributes": {
            "NORMAL": 11,
            "POSITION": 10
          },
          "indices": 9,
          "material": 1
        }
      ]
    },
    {
      "name": "Mesh_Riser_R2",
      "primitives": [
        {
          "attributes": {
            "NORMAL": 8,
            "POSITION": 7
          },
          "indices": 6,
          "material": 6
        }
      ]
    },
    {
      "name": "Mesh_CurvedWall",
      "primitives": [
        {
          "attributes": {
            "NORMAL": 2,
            "POSITION": 1
          },
          "indices": 0,
          "material": 1
        }
      ]
    },
    {
      "name": "Mesh_Stage",
      "primitives": [
        {
          "attributes": {
            "NORMAL": 38,
            "POSITION": 37
          },
          "indices": 36,
          "material": 7
        },
        {
          "attributes": {
            "NORMAL": 32,
            "POSITION": 31
          },
          "indices": 30,
          "material": 0
        }
      ]
    },
    {
      "name": "Mesh_ProjectorScreen",
      "primitives": [
        {
          "attributes": {
            "NORMAL": 44,
            "POSITION": 43,
            "TEXCOORD_0": 45
          },
          "indices": 42,
          "material": 8
        }
      ]
    },
    {
      "name": "Mesh_ScreenBezel_Left",
      "primitives": [
        {
          "attributes": {
            "NORMAL": 41,
            "POSITION": 40
          },
          "indices": 39,
          "material": 0
        }
      ]
    },
    {
      "name": "Mesh_ScreenBezel_Right",
      "primitives": [
        {
          "attributes": {
            "NORMAL": 48,
            "POSITION": 47
          },
          "indices": 46,
          "material": 0
        }
      ]
    }
  ],
  "nodes": [
    {
      "extras": {
        "meta_spatial": {
          "entity_id": "Seat_R1_01"
        }
      },
      "mesh": 2,
      "name": "Seat_R1_01",
      "rotation": [
        0,
        -0.28537702560424805,
        0,
        0.9584153294563293
      ],
      "translation": [
        2.262741804122925,
        0,
        0.33725830912590027
      ]
    },
    {
      "extras": {
        "meta_spatial": {
          "entity_id": "Ceiling"
        }
      },
      "mesh": 3,
      "name": "Ceiling"
    },
    {
      "extras": {
        "meta_spatial": {
          "entity_id": "Wall_Front_Flat"
        }
      },
      "mesh": 7,
      "name": "Wall_Front_Flat"
    },
    {
      "extras": {
        "meta_spatial": {
          "entity_id": "Floor"
        }
      },
      "mesh": 1,
      "name": "Floor"
    },
    {
      "extras": {
        "meta_spatial": {
          "entity_id": "Seat_R1_05"
        }
      },
      "mesh": 2,
      "name": "Seat_R1_05",
      "rotation": [
        0,
        0.28537696599960327,
        0,
        0.9584153890609741
      ],
      "translation": [
        -2.262741804122925,
        0,
        0.33725830912590027
      ]
    },
    {
      "extras": {
        "meta_spatial": {
          "entity_id": "InstructorAvatar_Anchor"
        }
      },
      "name": "InstructorAvatar_Anchor",
      "rotation": [
        0,
        -1,
        0,
        4.371138828673793E-8
      ],
      "translation": [
        0.8999999761581421,
        0.30000001192092896,
        3.799999952316284
      ]
    },
    {
      "extras": {
        "meta_spatial": {
          "entity_id": "Seat_R3_02"
        }
      },
      "mesh": 2,
      "name": "Seat_R3_02",
      "rotation": [
        0,
        -0.1633589267730713,
        0,
        0.9865667223930359
      ],
      "translation": [
        2.296100616455078,
        0.699999988079071,
        -2.94327712059021
      ]
    },
    {
      "extras": {
        "meta_spatial": {
          "entity_id": "Stage"
        }
      },
      "mesh": 10,
      "name": "Stage"
    },
    {
      "extras": {
        "meta_spatial": {
          "entity_id": "Light_Fixture_06"
        }
      },
      "mesh": 4,
      "name": "Light_Fixture_06",
      "translation": [
        0,
        3.950000047683716,
        -2.9000000953674316
      ]
    },
    {
      "extras": {
        "meta_spatial": {
          "entity_id": "ScreenBezel_Bottom"
        }
      },
      "mesh": 5,
      "name": "ScreenBezel_Bottom"
    },
    {
      "extras": {
        "meta_spatial": {
          "entity_id": "Riser_Row2"
        }
      },
      "mesh": 8,
      "name": "Riser_Row2"
    },
    {
      "extras": {
        "meta_spatial": {
          "entity_id": "Seat_R1_02"
        }
      },
      "mesh": 2,
      "name": "Seat_R1_02",
      "rotation": [
        0,
        -0.142769917845726,
        0,
        0.9897559285163879
      ],
      "translation": [
        1.2245869636535645,
        0,
        -0.3564144968986511
      ]
    },
    {
      "extras": {
        "meta_spatial": {
          "entity_id": "Seat_R2_05"
        }
      },
      "mesh": 2,
      "name": "Seat_R2_05",
      "rotation": [
        0,
        0.31024616956710815,
        0,
        0.9506562948226929
      ],
      "translation": [
        -3.2526912689208984,
        0.3499999940395355,
        -0.6526911854743958
      ]
    },
    {
      "extras": {
        "meta_spatial": {
          "entity_id": "Light_Fixture_05"
        }
      },
      "mesh": 4,
      "name": "Light_Fixture_05",
      "translation": [
        3.5,
        3.950000047683716,
        -1.899999976158142
      ]
    },
    {
      "extras": {
        "meta_spatial": {
          "entity_id": "Seat_R3_01"
        }
      },
      "mesh": 2,
      "name": "Seat_R3_01",
      "rotation": [
        0,
        -0.32504886388778687,
        0,
        0.9456972479820251
      ],
      "translation": [
        4.242640495300293,
        0.699999988079071,
        -1.6426407098770142
      ]
    },
    {
      "extras": {
        "meta_spatial": {
          "entity_id": "ScreenBezel_Top"
        }
      },
      "mesh": 6,
      "name": "ScreenBezel_Top"
    },
    {
      "extras": {
        "meta_spatial": {
          "entity_id": "Light_Fixture_02"
        }
      },
      "mesh": 4,
      "name": "Light_Fixture_02",
      "translation": [
        -2.5,
        3.950000047683716,
        0.10000000149011612
      ]
    },
    {
      "extras": {
        "meta_spatial": {
          "entity_id": "Wall_Curved"
        }
      },
      "mesh": 9,
      "name": "Wall_Curved"
    },
    {
      "extras": {
        "meta_spatial": {
          "entity_id": "Seat_R3_05"
        }
      },
      "mesh": 2,
      "name": "Seat_R3_05",
      "rotation": [
        0,
        0.3250489830970764,
        0,
        0.9456971883773804
      ],
      "translation": [
        -4.242640495300293,
        0.699999988079071,
        -1.6426407098770142
      ]
    },
    {
      "extras": {
        "meta_spatial": {
          "entity_id": "Seat_R2_02"
        }
      },
      "mesh": 2,
      "name": "Seat_R2_02",
      "rotation": [
        0,
        -0.1555800586938858,
        0,
        0.9878233075141907
      ],
      "translation": [
        1.7603437900543213,
        0.3499999940395355,
        -1.649845838546753
      ]
    },
    {
      "extras": {
        "meta_spatial": {
          "entity_id": "Riser_Row3"
        }
      },
      "mesh": 0,
      "name": "Riser_Row3"
    },
    {
      "extras": {
        "meta_spatial": {
          "entity_id": "Light_Fixture_03"
        }
      },
      "mesh": 4,
      "name": "Light_Fixture_03",
      "translation": [
        2.5,
        3.950000047683716,
        0.10000000149011612
      ]
    },
    {
      "extras": {
        "meta_spatial": {
          "entity_id": "entry_point"
        }
      },
      "name": "entry_point",
      "translation": [
        0,
        0,
        -3.9000000953674316
      ]
    },
    {
      "extras": {
        "meta_spatial": {
          "entity_id": "Seat_R1_03"
        }
      },
      "mesh": 2,
      "name": "Seat_R1_03",
      "translation": [
        0,
        0,
        -0.6000000238418579
      ]
    },
    {
      "extras": {
        "meta_spatial": {
          "entity_id": "Seat_R1_04"
        }
      },
      "mesh": 2,
      "name": "Seat_R1_04",
      "rotation": [
        0,
        0.14277000725269318,
        0,
        0.9897559285163879
      ],
      "translation": [
        -1.2245869636535645,
        0,
        -0.3564144968986511
      ]
    },
    {
      "extras": {
        "meta_spatial": {
          "entity_id": "Light_Fixture_04"
        }
      },
      "mesh": 4,
      "name": "Light_Fixture_04",
      "translation": [
        -3.5,
        3.950000047683716,
        -1.899999976158142
      ]
    },
    {
      "extras": {
        "meta_spatial": {
          "entity_id": "Seat_R2_01"
        }
      },
      "mesh": 2,
      "name": "Seat_R2_01",
      "rotation": [
        0,
        -0.31024622917175293,
        0,
        0.9506563544273376
      ],
      "translation": [
        3.2526912689208984,
        0.3499999940395355,
        -0.6526911854743958
      ]
    },
    {
      "extras": {
        "meta_spatial": {
          "entity_id": "ProjectorScreen"
        }
      },
      "mesh": 11,
      "name": "ProjectorScreen"
    },
    {
      "extras": {
        "meta_spatial": {
          "entity_id": "Seat_R2_03"
        }
      },
      "mesh": 2,
      "name": "Seat_R2_03",
      "translation": [
        0,
        0.3499999940395355,
        -2
      ]
    },
    {
      "extras": {
        "meta_spatial": {
          "entity_id": "Seat_R2_04"
        }
      },
      "mesh": 2,
      "name": "Seat_R2_04",
      "rotation": [
        0,
        0.15558002889156342,
        0,
        0.9878233075141907
      ],
      "translation": [
        -1.7603437900543213,
        0.3499999940395355,
        -1.649845838546753
      ]
    },
    {
      "extras": {
        "meta_spatial": {
          "entity_id": "Light_Fixture_01"
        }
      },
      "mesh": 4,
      "name": "Light_Fixture_01",
      "translation": [
        0,
        3.950000047683716,
        0.6000000238418579
      ]
    },
    {
      "extras": {
        "meta_spatial": {
          "entity_id": "Seat_R3_03"
        }
      },
      "mesh": 2,
      "name": "Seat_R3_03",
      "translation": [
        0,
        0.699999988079071,
        -3.4000000953674316
      ]
    },
    {
      "extras": {
        "meta_spatial": {
          "entity_id": "Seat_R3_04"
        }
      },
      "mesh": 2,
      "name": "Seat_R3_04",
      "rotation": [
        0,
        0.16335885226726532,
        0,
        0.9865667223930359
      ],
      "translation": [
        -2.296100616455078,
        0.699999988079071,
        -2.94327712059021
      ]
    },
    {
      "extras": {
        "meta_spatial": {
          "entity_id": "ScreenBezel_Left"
        }
      },
      "mesh": 12,
      "name": "ScreenBezel_Left"
    },
    {
      "extras": {
        "meta_spatial": {
          "entity_id": "ScreenBezel_Right"
        }
      },
      "mesh": 13,
      "name": "ScreenBezel_Right"
    }
  ],
  "scene": 0,
  "scenes": [
    {
      "nodes": [
        0,
        5,
        3,
        1,
        6,
        8,
        9,
        2,
        10,
        11,
        13,
        14,
        15,
        16,
        17,
        19,
        20,
        21,
        22,
        23,
        12,
        24,
        25,
        18,
        4,
        26,
        28,
        29,
        30,
        31,
        32,
        7,
        27,
        33,
        34
      ]
    }
  ]
}